<svg id="Design" xmlns="http://www.w3.org/2000/svg" viewBox="0 0 89.53421 32"><title>etown</title><path d="M132.94764,146.31712a12.26084,12.26084,0,0,0,.89059,5.42874,2.8878,2.8878,0,0,0,2.707,1.681,4.9628,4.9628,0,0,0,3.38827-1.29675,5.421,5.421,0,0,0,1.7811-4.27582H142.027a5.82762,5.82762,0,0,1-1.67728,4.30211,6.0403,6.0403,0,0,1-4.47176,1.67871,6.13033,6.13033,0,0,1-4.2623-1.78119,7.11249,7.11249,0,0,1-2.27088-5.48342,8.21868,8.21868,0,0,1,2.23564-5.97263,6.03271,6.03271,0,0,1,4.40117-1.99094,5.49429,5.49429,0,0,1,3.77252,1.32552q2.20058,1.954,2.20077,6.38468h-9.00722Zm6.05282-.43226a16.682,16.682,0,0,0-.60865-5.14432q-0.60923-1.77339-1.96551-1.77338a2.74531,2.74531,0,0,0-2.69618,1.68556,13.1208,13.1208,0,0,0-.78248,5.23215h6.05282Z" transform="translate(-129.34476 -125.949)"/><path d="M160.32538,146.0769v1.60745q0,0.80383.03486,1.53793a6.991,6.991,0,0,1-.55884,3.35494,3.19667,3.19667,0,0,1-2.96783,1.25789,4.10326,4.10326,0,0,1-3.07262-1.0129,4.00886,4.00886,0,0,1-.97765-2.89983v-9.92231H149.997v-0.33623a6.45464,6.45464,0,0,0,4.27287-3.3237,9.63041,9.63041,0,0,0,1.15549-4.72274h0.62456v7.37377h4.03522v1.0089h-4.03522v9.49026a13.05184,13.05184,0,0,0,.13811,2.44243,1.52279,1.52279,0,0,0,1.55374,1.32589,1.84269,1.84269,0,0,0,1.86454-1.53373,16.53552,16.53552,0,0,0,.31071-3.97444V146.0769h0.40834Z" transform="translate(-129.34476 -125.949)"/><path d="M176.86788,146.18587a7.45125,7.45125,0,0,1-2.339,5.623,6.78559,6.78559,0,0,1-9.53088.14,7.492,7.492,0,0,1-2.37375-5.76307,7.33983,7.33983,0,0,1,2.33889-5.58839,6.828,6.828,0,0,1,9.53087-.105A7.3422,7.3422,0,0,1,176.86788,146.18587Zm-3.62716,0a15.55372,15.55372,0,0,0-.66385-5.45028,2.81826,2.81826,0,0,0-2.83087-1.81681,2.76144,2.76144,0,0,0-2.69093,1.7471,14.04059,14.04059,0,0,0-.80392,5.52,15.87379,15.87379,0,0,0,.71648,5.5901,2.72537,2.72537,0,0,0,2.77838,1.74652,2.75935,2.75935,0,0,0,2.69094-1.78157A14.3186,14.3186,0,0,0,173.24072,146.18587Z" transform="translate(-129.34476 -125.949)"/><path d="M188.40451,142.4L185.114,153.46876H184.4173l-5.14013-13.42983a1.91292,1.91292,0,0,0-.76715-1.10149,6.61309,6.61309,0,0,0-2.09115-.1926V138.3846h8.35867v0.36024q-0.80268,0-1.62308.01771-0.82041.01744-.82011,0.43721a2.11884,2.11884,0,0,0,.20955.6999l3.41018,9.23917,2.2102-7.47225-0.48025-1.61946a2.7623,2.7623,0,0,0-.50483-1.10854,1.94267,1.94267,0,0,0-1.09672-.19374H185.282V138.3846h7.7342v0.36024q-0.80726,0-1.59583.01771-0.78869.01744-.78849,0.43721a2.80016,2.80016,0,0,0,.17449.73515l2.65541,8.95951,2.35194-6.8596a6.33965,6.33965,0,0,0,.421-1.89016q0-1.39934-2.32984-1.39981V138.3846h5.8368v0.36024a2.99881,2.99881,0,0,0-2.05476.64694,8.66845,8.66845,0,0,0-1.63984,3.23511l-3.70336,10.84186h-0.69667Z" transform="translate(-129.34476 -125.949)"/><path d="M207.08535,144.96989v6.85293a2.45118,2.45118,0,0,0,.10515.90889,0.73288,0.73288,0,0,0,.33282.20993,4.02287,4.02287,0,0,0,.9466.17488,12.07678,12.07678,0,0,0,1.2095.06972v0.33624h-8.95913v-0.33624q0.7684,0,1.51964-.06972a5.61207,5.61207,0,0,0,1.34513-.27966,1.49263,1.49263,0,0,0,.20974-1.01366v-10.591q0-.31489-0.01771-0.62942a0.84316,0.84316,0,0,0-.15755-0.4894l-0.2105-.34938a7.42708,7.42708,0,0,0-2.66474-.2448V139.183l6.34106-.60047v4.50138a6.89635,6.89635,0,0,1,.90755-2.652,3.08077,3.08077,0,0,1,2.05933-1.7271q1.08186-.122,1.396-0.1223a4.64522,4.64522,0,0,1,3.49038,1.32742,3.68805,3.68805,0,0,1,1.08206,2.65484v9.25669a2.46086,2.46086,0,0,0,.10459.90851,0.73891,0.73891,0,0,0,.34842.21089,4.49226,4.49226,0,0,0,1.01062.17526q0.73181,0.0703,1.39466.0701v0.33624h-8.93532v-0.33624q0.55751,0,1.28855-.06972a5.01386,5.01386,0,0,0,1.28875-.28,1.49425,1.49425,0,0,0,.209-1.01366v-8.846a8.88715,8.88715,0,0,0-.2789-2.55235,1.71969,1.71969,0,0,0-1.67223-1.43372,2.99108,2.99108,0,0,0-2.61331,1.99284A12.27,12.27,0,0,0,207.08535,144.96989Z" transform="translate(-129.34476 -125.949)"/><rect x="17.35767" width="0.31209" height="32" style="fill:red"/></svg>